<?xml version="1.0" encoding="UTF-8" standalone="no"?>
<svg
   version="1.1"
   preserveAspectRatio="xMidYMid meet"
   zoomAndPan="magnify"
   width="892.344"
   height="890.96"
   viewBox="0 0 892.344 890.96"
   id="svg3128"
   sodipodi:docname="dod-logo.svg"
   inkscape:version="1.1.1 (3bf5ae0d25, 2021-09-20)"
   xmlns:inkscape="http://www.inkscape.org/namespaces/inkscape"
   xmlns:sodipodi="http://sodipodi.sourceforge.net/DTD/sodipodi-0.dtd"
   xmlns="http://www.w3.org/2000/svg"
   xmlns:svg="http://www.w3.org/2000/svg">
  <defs
     id="defs3132">
    <clipPath
       id="clip1">
      <path
         d="M 0,587.16016 H 384.92187 V 842 H 0 Z m 0,0"
         id="path2" />
    </clipPath>
  </defs>
  <sodipodi:namedview
     id="namedview3130"
     pagecolor="#ffffff"
     bordercolor="#666666"
     borderopacity="1.0"
     inkscape:pageshadow="2"
     inkscape:pageopacity="0.0"
     inkscape:pagecheckerboard="0"
     showgrid="false"
     inkscape:zoom="0.97984194"
     inkscape:cx="446.50058"
     inkscape:cy="445.48001"
     inkscape:window-width="2560"
     inkscape:window-height="1377"
     inkscape:window-x="624"
     inkscape:window-y="-8"
     inkscape:window-maximized="1"
     inkscape:current-layer="g3126" />
  <g
     id="g3126">
    <g
       clip-path="url(#clip1)"
       clip-rule="nonzero"
       id="g9"
       transform="matrix(2.2639664,0,0,2.7710427,8.7343352,-1540.7753)">
      <path
         style="fill:#385797;fill-opacity:1;fill-rule:nonzero;stroke:none"
         d="M 192.46094,587.16016 C 86.167969,587.16016 0,644.20703 0,714.57812 0,784.95312 86.167969,842 192.46094,842 c 106.29297,0 192.46093,-57.04688 192.46093,-127.42188 0,-70.37109 -86.16796,-127.41796 -192.46093,-127.41796 z m 0,6 c 50.24218,0 97.39843,12.89843 132.77734,36.32031 34.61719,22.92187 53.68359,53.14062 53.68359,85.09765 0,31.95704 -19.0664,62.17969 -53.68359,85.09766 C 289.85937,823.10156 242.70312,836 192.46094,836 142.21875,836 95.0625,823.10156 59.683594,799.67578 25.066406,776.75781 6,746.53516 6,714.57812 6,682.62109 25.066406,652.40234 59.683594,629.48047 95.0625,606.05859 142.21875,593.16016 192.46094,593.16016"
         id="path7" />
    </g>
    <path
       style="fill:#aebdd7;fill-opacity:1;fill-rule:nonzero;stroke:none;stroke-width:2.5047"
       d="m 326.64473,620.52968 h 9.00285 v -28.26243 h -9.00285 v 28.26243"
       id="path11" />
    <path
       style="fill:#385797;fill-opacity:1;fill-rule:nonzero;stroke:none;stroke-width:2.5047"
       d="m 367.10431,612.25999 h -10.30278 v -28.79294 h 10.30278 z m -59.64136,0 h -9.48039 v -28.79294 h 9.48039 z m -20.34913,0 h -9.48039 v -28.79294 h 9.48039 z m -20.34035,0 h -9.48037 v -28.79294 h 9.48037 z m -20.64099,0 h -9.48038 v -28.79294 h 9.48038 z m -20.86215,0 h -9.48032 v -28.79294 h 9.48032 z M 205.01849,567.8799 v 59.60995 h 112.96838 v -44.0228 h 26.38047 v 47.4 h 34.79084 v -43.80636 l 7.03949,-19.722 -181.17918,0.54121"
       id="path13" />
    <path
       style="fill:#385797;fill-opacity:1;fill-rule:nonzero;stroke:none;stroke-width:2.5047"
       d="m 670.98878,612.25999 h -9.69255 v -28.79294 h 9.69255 z m -19.40292,0 h -9.69255 v -28.79294 h 9.69255 z m -20.80903,0 h -9.70155 v -28.79294 h 9.70155 z m -21.11856,0 h -9.69272 v -28.79294 h 9.69272 z m -20.51714,0 h -9.69272 v -28.79294 h 9.69272 z m -59.17274,0 h -10.23207 v -28.79294 h 10.23207 z m -29.06011,-44.9213 6.9599,19.2133 v 44.31506 h 35.0915 v -47.4 h 26.19481 v 44.0228 H 681.4242 V 567.8799 l -180.52487,-0.54121"
       id="path15" />
    <path
       style="fill:#aebdd7;fill-opacity:1;fill-rule:nonzero;stroke:none;stroke-width:2.5047"
       d="m 551.75909,620.52968 h 8.59599 v -28.26243 h -8.59599 v 28.26243"
       id="path17" />
    <path
       style="fill:#385797;fill-opacity:1;fill-rule:nonzero;stroke:none;stroke-width:2.5047"
       d="m 621.33185,352.79934 72.04015,-39.95281 62.03789,17.62213 -17.66947,40.52654 z m 78.70809,103.48117 -150.03186,-19.53803 56.23658,-74.30939 126.28688,19.91688 z m -30.44842,67.72814 -108.69698,0.0314 -19.89818,-77.70821 150.3328,29.48558 z m -325.96701,0.0314 16.20148,-78.67162 h 167.29474 l 16.20155,78.67162 z m -126.26918,-0.0314 -21.73765,-48.1901 150.34153,-29.48567 -19.90695,77.7083 z m -62.94006,-141.65868 126.29569,-19.91688 56.22776,74.30939 -150.03201,19.53803 z m -22.87841,-51.88131 62.03799,-17.62213 72.04006,39.95281 -116.4085,18.19586 z M 365.0172,263.43325 c -0.0192,0.0549 -0.0321,0.10828 -0.0513,0.16252 0.0513,-0.16252 62.75431,37.78793 62.75431,37.78793 l -142.87752,47.68142 -74.07417,-41.06766 c 51.41686,-14.85107 102.83362,-29.71297 154.25041,-44.56404 z m 78.46063,-23.12091 63.87746,18.87775 -63.87746,37.33328 -63.88632,-37.33328 z m 149.56321,119.65281 -60.7733,72.96715 H 354.68784 L 293.90569,359.96515 443.47783,305.61592 Z M 676.18,307.99721 602.10585,349.06496 459.22828,301.38354 c 0,0 62.7013,-37.95029 62.75431,-37.78793 -0.0192,-0.0551 -0.0321,-0.10849 -0.0513,-0.16252 51.41679,14.85098 102.8335,29.7129 154.25039,44.56398 z M 443.47783,234.05591 119.80135,322.85913 205.25722,533.047 h 476.4322 L 767.14544,322.85913 443.47783,234.05591"
       id="path19" />
    <path
       style="fill:#385797;fill-opacity:1;fill-rule:nonzero;stroke:none;stroke-width:2.5047"
       d="m 388.30249,640.03519 v 10.12082 H 498.6443 V 640.03519 H 388.30249"
       id="path21" />
    <path
       style="fill:#aebdd7;fill-opacity:1;fill-rule:nonzero;stroke:none;stroke-width:2.5047"
       d="m 433.30769,630.86705 h 6.5 v -38.5998 h -6.5 v 38.5998"
       id="path23" />
    <path
       style="fill:#aebdd7;fill-opacity:1;fill-rule:nonzero;stroke:none;stroke-width:2.5047"
       d="m 419.46736,630.86705 h 6.50007 v -38.5998 h -6.50007 v 38.5998"
       id="path25" />
    <path
       style="fill:#aebdd7;fill-opacity:1;fill-rule:nonzero;stroke:none;stroke-width:2.5047"
       d="m 406.01626,630.86705 h 6.50007 v -38.5998 h -6.50007 v 38.5998"
       id="path27" />
    <path
       style="fill:#aebdd7;fill-opacity:1;fill-rule:nonzero;stroke:none;stroke-width:2.5047"
       d="m 460.20996,630.86705 h 6.5 v -38.5998 h -6.5 v 38.5998"
       id="path29" />
    <path
       style="fill:#aebdd7;fill-opacity:1;fill-rule:nonzero;stroke:none;stroke-width:2.5047"
       d="m 446.75879,630.86705 h 6.50007 v -38.5998 h -6.50007 v 38.5998"
       id="path31" />
    <path
       style="fill:#aebdd7;fill-opacity:1;fill-rule:nonzero;stroke:none;stroke-width:2.5047"
       d="m 487.8905,630.86705 h 6.5 v -38.5998 h -6.5 v 38.5998"
       id="path33" />
    <path
       style="fill:#aebdd7;fill-opacity:1;fill-rule:nonzero;stroke:none;stroke-width:2.5047"
       d="m 474.05022,630.86705 h 6.50002 v -38.5998 h -6.50002 v 38.5998"
       id="path35" />
    <path
       style="fill:#aebdd7;fill-opacity:1;fill-rule:nonzero;stroke:none;stroke-width:2.5047"
       d="m 392.55629,630.86705 h 6.5 v -38.5998 h -6.5 v 38.5998"
       id="path37" />
    <path
       style="fill:#385797;fill-opacity:1;fill-rule:nonzero;stroke:none;stroke-width:2.5047"
       d="m 773.29177,326.50695 -1.645,3.95088 -83.87283,206.29113 -1.8749,4.61123 H 201.0477 l -1.87488,-4.61123 -84.90756,-208.84571 -0.58336,-1.3963 -7.11025,12.69702 v 46.07942 l 92.14166,242.43382 v -67.65249 l 197.68137,-0.5522 -8.26874,23.57554 h 110.91664 l -8.26875,-23.57554 197.48692,0.5522 v 67.65249 l 92.14163,-242.43382 v -46.07942 l -7.11027,-12.69702"
       id="path39" />
    <path
       style="fill:#aebdd7;fill-opacity:1;fill-rule:nonzero;stroke:none;stroke-width:2.5047"
       d="m 672.43919,381.25671 -25.46962,-4.0159 -37.37327,58.90635 29.64392,3.85346 33.19897,-58.74391"
       id="path41" />
    <path
       style="fill:#aebdd7;fill-opacity:1;fill-rule:nonzero;stroke:none;stroke-width:2.5047"
       d="m 714.12787,387.82704 -25.25737,-3.98338 -31.19146,58.55996 29.39619,3.83185 27.05264,-58.40843"
       id="path43" />
    <path
       style="fill:#aebdd7;fill-opacity:1;fill-rule:nonzero;stroke:none;stroke-width:2.5047"
       d="m 199.84493,446.23547 29.39619,-3.83185 -31.19145,-58.54911 -25.26618,3.98338 27.06144,58.39758"
       id="path45" />
    <path
       style="fill:#aebdd7;fill-opacity:1;fill-rule:nonzero;stroke:none;stroke-width:2.5047"
       d="m 364.54852,456.45372 -1.82181,8.84355 h 161.49337 l -1.82182,-8.84355 H 364.54852"
       id="path47" />
    <path
       style="fill:#aebdd7;fill-opacity:1;fill-rule:nonzero;stroke:none;stroke-width:2.5047"
       d="m 443.46012,245.98431 -46.80038,13.9743 8.28639,4.83849 38.51399,-11.88513 38.53162,11.89596 8.28652,-4.83847 -46.81814,-13.98515"
       id="path49" />
    <path
       style="fill:#aebdd7;fill-opacity:1;fill-rule:nonzero;stroke:none;stroke-width:2.5047"
       d="m 443.46012,261.58231 -28.83903,8.87599 9.78989,5.71524 19.04914,-5.91012 19.06683,5.92097 9.7899,-5.72609 -28.85673,-8.87599"
       id="path51" />
    <path
       style="fill:#aebdd7;fill-opacity:1;fill-rule:nonzero;stroke:none;stroke-width:2.5047"
       d="m 443.46012,277.56991 -10.85996,3.38798 10.87767,6.35393 10.85109,-6.34308 -10.8688,-3.39883"
       id="path53" />
    <path
       style="fill:#aebdd7;fill-opacity:1;fill-rule:nonzero;stroke:none;stroke-width:2.5047"
       d="m 172.78349,336.42206 30.10366,-9.28734 -10.01983,-5.55288 -44.87249,12.75113 12.30148,26.55224 23.55936,-3.69111 -11.07218,-20.77204"
       id="path55" />
    <path
       style="fill:#aebdd7;fill-opacity:1;fill-rule:nonzero;stroke:none;stroke-width:2.5047"
       d="m 726.62395,360.87436 12.30149,-26.55224 -44.8459,-12.74028 -10.02875,5.56373 30.07708,9.27649 -11.06332,20.77204 23.5594,3.68026"
       id="path57" />
    <path
       style="fill:#aebdd7;fill-opacity:1;fill-rule:nonzero;stroke:none;stroke-width:2.5047"
       d="m 507.77095,281.36926 c -3.12181,1.88345 -6.40279,3.85347 -9.71033,5.84515 l 127.69292,39.61727 10.61252,-5.88846 -128.59511,-39.57396"
       id="path59" />
    <path
       style="fill:#aebdd7;fill-opacity:1;fill-rule:nonzero;stroke:none;stroke-width:2.5047"
       d="m 489.96869,292.07458 c -4.15646,2.51121 -8.14495,4.91428 -11.67358,7.04664 l 123.26246,41.12187 15.43205,-8.55126 -127.02093,-39.61725"
       id="path61" />
    <path
       style="fill:#aebdd7;fill-opacity:1;fill-rule:nonzero;stroke:none;stroke-width:2.5047"
       d="m 525.77651,270.56654 c -2.00746,1.20148 -4.96126,2.9767 -8.52524,5.11991 l 128.98427,39.79046 10.45307,-5.80188 -130.9121,-39.10849"
       id="path63" />
    <path
       style="fill:#aebdd7;fill-opacity:1;fill-rule:nonzero;stroke:none;stroke-width:2.5047"
       d="m 369.74853,275.65401 c -3.50205,-2.11077 -6.42043,-3.85355 -8.52526,-5.10915 l -130.97395,39.13017 10.45314,5.79105 129.04607,-39.81207"
       id="path65" />
    <path
       style="fill:#aebdd7;fill-opacity:1;fill-rule:nonzero;stroke:none;stroke-width:2.5047"
       d="m 388.90381,287.19273 c -3.32519,-2.00244 -6.59729,-3.97255 -9.69261,-5.84514 l -128.63926,39.59563 10.61238,5.87761 127.71949,-39.6281"
       id="path67" />
    <path
       style="fill:#aebdd7;fill-opacity:1;fill-rule:nonzero;stroke:none;stroke-width:2.5047"
       d="m 269.9483,331.68098 15.43214,8.55128 123.26231,-41.12187 c -3.70542,-2.24061 -7.65856,-4.62199 -11.66471,-7.03581 l -127.02974,39.6064"
       id="path69" />
    <path
       style="fill:#aebdd7;fill-opacity:1;fill-rule:nonzero;stroke:none;stroke-width:2.5047"
       d="m 652.51431,344.62693 -6.553,3.63697 41.45895,6.48387 z m 0,0"
       id="path71" />
    <path
       style="fill:#aebdd7;fill-opacity:1;fill-rule:nonzero;stroke:none;stroke-width:2.5047"
       d="m 663.49817,338.54368 28.11388,8.78934 4.51916,-7.9992 -21.91458,-6.74355 -10.71846,5.95341"
       id="path73" />
    <path
       style="fill:#aebdd7;fill-opacity:1;fill-rule:nonzero;stroke:none;stroke-width:2.5047"
       d="m 234.37925,344.60532 -34.8792,10.14245 41.48543,-6.48387 z m 0,0"
       id="path75" />
    <path
       style="fill:#aebdd7;fill-opacity:1;fill-rule:nonzero;stroke:none;stroke-width:2.5047"
       d="m 223.43973,338.53285 -28.04313,8.96261 -4.61633,-8.16164 21.93215,-6.74355 10.72731,5.94258"
       id="path77" />
    <path
       style="fill:#aebdd7;fill-opacity:1;fill-rule:nonzero;stroke:none;stroke-width:2.5047"
       d="m 325.86653,496.96933 h -67.56524 l -12.06273,-22.6554 -30.5989,5.99668 15.1226,32.64632 h 91.00969 l 2.12247,-8.29141 1.97211,-7.69619"
       id="path79" />
    <path
       style="fill:#aebdd7;fill-opacity:1;fill-rule:nonzero;stroke:none;stroke-width:2.5047"
       d="m 656.15799,512.95693 15.12251,-32.64632 -12.64635,-2.47877 -17.95252,-3.52875 -12.07141,22.66624 h -67.52996 l 4.09458,15.9876 h 90.98315"
       id="path81" />
    <path
       style="fill:#aebdd7;fill-opacity:1;fill-rule:nonzero;stroke:none;stroke-width:2.5047"
       d="M 530.74666,496.96933 H 356.209 l -3.29869,15.9876 h 181.12617 l -1.70682,-8.29141 -1.583,-7.69619"
       id="path83" />
    <path
       style="fill:#aebdd7;fill-opacity:1;fill-rule:nonzero;stroke:none;stroke-width:2.5047"
       d="m 333.98497,465.29727 2.20206,-8.62708 -71.20001,13.96346 9.24158,16.3556 h 54.19372 l 3.43134,-13.3789 h -20.6145 l 6.79193,-8.31308 h 15.95388"
       id="path85" />
    <path
       style="fill:#aebdd7;fill-opacity:1;fill-rule:nonzero;stroke:none;stroke-width:2.5047"
       d="M 525.93573,473.61035 H 361.01991 l -1.59187,7.69611 -1.16736,5.68279 h 170.42536 l -0.91084,-4.45962 -0.2567,-1.22317 -1.58302,-7.69611"
       id="path87" />
    <path
       style="fill:#aebdd7;fill-opacity:1;fill-rule:nonzero;stroke:none;stroke-width:2.5047"
       d="m 621.93327,470.63365 -71.17352,-13.96346 2.21092,8.62708 h 15.94502 l 6.79191,8.31308 h -20.61446 l 3.43133,13.3789 h 54.15823 l 9.24157,-16.34483 0.0391,-0.008 h -0.0255"
       id="path89" />
    <path
       style="fill:#aebdd7;fill-opacity:1;fill-rule:nonzero;stroke:none;stroke-width:2.5047"
       d="m 296.13424,433.68998 23.80704,-3.09578 -44.59833,-58.93871 -20.02196,3.16067 40.81325,58.87382"
       id="path91" />
    <path
       style="fill:#aebdd7;fill-opacity:1;fill-rule:nonzero;stroke:none;stroke-width:2.5047"
       d="m 277.32393,436.14716 -29.64386,3.85346 -33.19891,-58.74391 25.46963,-4.0159 37.37314,58.90635"
       id="path93" />
    <path
       style="fill:#aebdd7;fill-opacity:1;fill-rule:nonzero;stroke:none;stroke-width:2.5047"
       d="m 567.00545,430.5942 23.78051,3.09578 40.80454,-58.87382 -19.98669,-3.16067 -44.59836,58.93871"
       id="path95" />
    <path
       style="fill:#385797;fill-opacity:1;fill-rule:nonzero;stroke:none;stroke-width:2.5047"
       d="m 443.47783,314.28618 -134.09585,48.73141 28.89209,34.69214 90.60294,-33.01435 v 3.12823 l 6.16399,4.81688 h 16.87364 l 6.16399,-4.81688 v -3.12823 l 90.59402,33.01435 28.89203,-34.69214 -134.08685,-48.73141"
       id="path97" />
  </g>
</svg>
