<?xml version="1.0" encoding="UTF-8" standalone="no"?>
<svg
   height="24px"
   viewBox="0 0 24 24"
   width="24px"
   fill="#000000"
   version="1.1"
   id="svg6"
   sodipodi:docname="filter-divisions.svg"
   inkscape:version="1.1 (c68e22c387, 2021-05-23)"
   xmlns:inkscape="http://www.inkscape.org/namespaces/inkscape"
   xmlns:sodipodi="http://sodipodi.sourceforge.net/DTD/sodipodi-0.dtd"
   xmlns="http://www.w3.org/2000/svg"
   xmlns:svg="http://www.w3.org/2000/svg">
  <defs
     id="defs10" />
  <sodipodi:namedview
     id="namedview8"
     pagecolor="#ffffff"
     bordercolor="#666666"
     borderopacity="1.0"
     inkscape:pageshadow="2"
     inkscape:pageopacity="0.0"
     inkscape:pagecheckerboard="0"
     showgrid="true"
     inkscape:zoom="36.375"
     inkscape:cx="15.90378"
     inkscape:cy="10.487973"
     inkscape:window-width="2560"
     inkscape:window-height="1361"
     inkscape:window-x="-9"
     inkscape:window-y="-9"
     inkscape:window-maximized="1"
     inkscape:current-layer="svg6">
    <inkscape:grid
       type="xygrid"
       id="grid7371" />
  </sodipodi:namedview>
  <path
     d="M0 0h24v24H0z"
     fill="none"
     id="path2" />
  <g
     style="fill:#000000"
     id="g218"
     transform="translate(1.2508591,-8.4261168)">
    <path
       d="M 0,0 H 24 V 24 H 0 Z"
       fill="none"
       id="path206" />
  </g>
  <g
     style="fill:#000000"
     id="g445"
     transform="translate(-2.81787,8.061856)">
    <path
       d="M 0,0 H 24 V 24 H 0 Z"
       fill="none"
       id="path433" />
    <g
       id="g11955"
       transform="translate(0,-1)">
      <path
         style="fill:#000000;fill-opacity:1"
         d="m 8.81787,9.9381437 h -5 V 7.938144 h 5 z"
         id="path6434"
         sodipodi:nodetypes="ccccc" />
      <path
         style="fill:#000000;fill-opacity:1"
         d="m 3.8178703,0.9381443 v 5 H 5.81787 v -5 z"
         id="path6434-4"
         sodipodi:nodetypes="ccccc"
         inkscape:transform-center-x="-0.52233673"
         inkscape:transform-center-y="0.05498282" />
      <path
         style="fill:#000000;fill-opacity:1"
         d="m 8.81787,3.9381437 h -5 V 1.938144 h 5 z"
         id="path6434-0"
         sodipodi:nodetypes="ccccc" />
      <path
         style="fill:#000000;fill-opacity:1"
         d="m 11.81787,15.938144 h -8 V 3.9381443 h 2 v 9.9999997 h 6 z"
         id="path435"
         sodipodi:nodetypes="ccccccc" />
      <path
         style="color:#000000;stroke-width:0.666666;-inkscape-stroke:none"
         d="m 7.81787,10.938144 v -3 -1 h 4 v 4 z"
         id="path7713"
         sodipodi:nodetypes="cccccc" />
      <path
         style="color:#000000;fill:#000000;stroke-width:0.666666;-inkscape-stroke:none"
         d="m 11.81787,16.938144 v -3 -1 h 4 v 4 z"
         id="path7713-3"
         sodipodi:nodetypes="cccccc" />
      <path
         style="color:#000000;fill:#000000;stroke-width:0.666666;-inkscape-stroke:none"
         d="m 7.81787,4.938144 v -3 -1 h 4 v 4 z"
         id="path7713-3-9"
         sodipodi:nodetypes="cccccc" />
    </g>
  </g>
  <g
     style="fill:#000000"
     id="g11975"
     transform="translate(3,-4)">
    <g
       id="g11963">
      <path
         d="m 0,0 h 24 m 0,24 H 0"
         fill="none"
         id="path11957" />
      <path
         d="M 4.25,5.61 C 6.27,8.2 10,13 10,13 v 6 c 0,0.55 0.45,1 1,1 h 2 c 0.55,0 1,-0.45 1,-1 V 13 C 14,13 17.72,8.2 19.74,5.61 20.25,4.95 19.78,4 18.95,4 H 5.04 C 4.21,4 3.74,4.95 4.25,5.61 Z"
         id="path11959" />
      <path
         d="M 0,0 H 24 V 24 H 0 Z"
         fill="none"
         id="path11961" />
    </g>
  </g>
</svg>
