<?xml version="1.0" encoding="UTF-8"?>
<svg width="24px" height="24px" enable-background="new 0 0 24 24" fill="#fff" version="1.1" viewBox="0 0 24 24" xmlns="http://www.w3.org/2000/svg">
 <g>
  <path d="m20 14c-13.333-9.3333-6.6667-4.6667 0 0zm-17-3c-1.1 0-2 0.9-2 2v7c0 1.1 0.9 2 2 2s2-0.9 2-2v-7c0-1.1-0.9-2-2-2zm16.99 6h-6.83c-0.11 0-0.22-0.02-0.33-0.06l-1.47-0.51c-0.26-0.09-0.39-0.37-0.3-0.63s0.38-0.4 0.64-0.3l1.12 0.43c0.11 0.04 0.24 0.07 0.36 0.07h2.63c0.65 0 1.18-0.53 1.18-1.18 0-0.49-0.31-0.93-0.77-1.11l-6.92-2.58c-0.22-0.09-0.46-0.13-0.7-0.13h-1.6v9.02l6.37 1.81c0.41 0.12 0.85 0.1 1.25-0.05l7.38-2.78c0-1.11-0.9-2-2.01-2z"/>
  <path d="m15 0.85547c-4.416 0-8 3.584-8 8 0 0.048402 0.00305 0.096333 0.00391 0.14453h1.5957c0.46222 0 0.95746 0.074967 1.457 0.2793l-0.058594-0.023437 6.8203 2.543c0.12781-0.19979 0.17383-0.40854 0.17383-0.58203 0-0.664-0.35272-1.2889-2.1367-1.7129-1.984-0.48-3.3438-1.2955-3.3438-2.9355-4e-6 -1.376 1.1123-2.2724 2.4883-2.5684v-0.48047c0-0.584 0.48045-1.0645 1.0645-1.0645h0.0078c0.584 0 1.0645 0.48045 1.0645 1.0645v0.49609c1.104 0.272 1.7995 0.96059 2.1035 1.8086 0.16 0.44-0.17644 0.9043-0.64844 0.9043h-0.20703c-0.296 0-0.53719-0.20809-0.61719-0.49609-0.184-0.608-0.68731-1-1.6953-1-1.2 0-1.9199 0.5445-1.9199 1.3125 0 0.672 0.51876 1.1113 2.1348 1.5273s3.3457 1.111 3.3457 3.127c-0.0065 0.59056-0.19158 1.0722-0.49805 1.4551 0.53343 0.57327 0.85547 1.3374 0.85547 2.166 0 0.06354-0.03331 0.11699-0.03711 0.17969h1.0371c0.04144 0 0.08187 0.0046 0.12305 0.0059 1.763-1.4679 2.8867-3.6788 2.8867-6.1504 0-4.416-3.584-8-8-8z" fill="#fff" stroke-width=".8"/>
 </g>
 <rect width="24" height="24" fill="none"/>
 <g>
  <g transform="matrix(.8 0 0 .8 1.0674 -1.3818)" fill="#fff">
   <path d="m0 0h24v24h-24z" fill="none"/>
  </g>
 </g>
</svg>
