<?xml version="1.0" encoding="UTF-8"?>
<!-- Generator: Adobe Illustrator 19.0.0, SVG Export Plug-In . SVG Version: 6.00 Build 0)  -->
<svg id="layer" width="600" height="233.1" version="1.1" viewBox="-153 -46 600 233.1" xml:space="preserve" xmlns="http://www.w3.org/2000/svg">
<style type="text/css">
	.st0{fill:#379499;}
	.st1{fill:#455865;}
</style>
<path class="st0" d="m-14.3 5c-4.7 7.8-4.1 18.8-4.1 29.1 0 24.6-1 50.1 1.6 74.7 1 9.2 1.8 18.6 6.3 26.8h-30.1c3.7-10.2 3.7-25.4 3.7-36.8v-67.9c0-2 0-4.5-1.4-4.5s-2.1 1.4-2.7 3.1l-45.7 108.2-38.9-100.5c-2.3-5.9-3.7-10.8-5.5-10.8s-1.8 3.7-1.8 6.8l-0.2 66.5c0 16 0 29.3 4.5 36h-24.4l1.8-2.7c7.6-10.8 8.4-43.2 8.4-65.3v-51.2c0-5.5-0.2-8.4-5.1-11.5h25.4c2.5 0 5.5 0.4 6.3 3.1l30.3 89.2c1 3.1 1.6 6.6 3.3 6.6 1.8 0 2.5-2.1 3.7-4.9l35.4-85.3c1.8-4.3 3.3-8.6 8.4-8.6h20.8zm112.6 68.4c0-27-9.2-62.6-42.2-62.6-29.5 0-42.2 27-42.2 56.5 0 27 9.2 62.6 42.2 62.6 29.5 0 42.2-27 42.2-56.5m21.2-5.7c0 38.9-22.5 71.2-65.1 71.2-43 0-61.8-29.5-61.8-65.9 0-38.9 22.5-71.2 65.1-71.2 43 0 61.8 29.4 61.8 65.9m113.3 5.7c0-27-9.2-62.6-42.2-62.6-29.5 0-42.2 27-42.2 56.5 0 27 9.2 62.6 42.2 62.6 29.5 0 42.2-27 42.2-56.5m21.2-5.7c0 38.9-22.5 71.2-65.1 71.2-43 0-61.8-29.5-61.8-65.9 0-38.9 22.5-71.2 65.1-71.2 43 0 61.8 29.4 61.8 65.9m26.8-3.7c3.1 0.4 6.1 0.6 9.2 0.6 19.9 0 30.7-10.6 30.7-30.1 0-20.5-11.7-22.9-29.9-23.3h-9.6c-0.2 3.1-0.4 6.6-0.4 9.8zm63.7 52.6c5.9 8 8.8 11.3 17.2 19h-16.8c-8.8 0-12.7-4.7-17.2-11.3l-25-35.6c-8.6-12.3-10-15.8-21.9-16.8v36.8c0 9.2 0 19.9 4.5 26.8h-28.4c5.9-9.4 5.5-19.2 5.5-28v-75.7c0-9.2 0-19.9-4.5-26.8 17.2 0 33.6-2 49.5-2 20.9 0 31.7 11.5 31.7 27.4 0 18.8-15.6 31.1-30.3 37zm42.6-44.2h5.1c12.7 0 35.8 0 43-11.7-15.8 1.4-32.3 1.4-48.1 1.4v-48.9h19c12.1 0 23.1 1.4 30.3 7.6l-0.8-15.8h-71.4c4.5 7 4.5 17.6 4.5 26.8v77c0 9.2-0.6 19.9-5.1 26.8h59.1c7.4 0 14.1-0.6 19.6-1l3.7-18.8c-9.6 8.6-22.7 11.7-35.4 11.7h-23.5z"/>
<path class="st1" d="m-116.9-29.4v14.5c-4.3 1.1-8.6 1.7-13.1 1.7-15.6 0-18.2-10.5-18.2-15.8 0-10.2 8.3-17 19.8-17 4.8 0 8.9 1.2 9.1 1.3 0.5 0.2 0.5 0.4 0.6 1l0.1 3.2c0 0.2 0 0.3-0.2 0.5l-0.9 0.5c-0.2 0.1-0.2 0.1-0.3 0.1-0.2 0-1.4-0.8-1.7-1-2.3-1.1-4.9-1.8-7.5-1.8-6.1 0-11.7 3.5-11.7 12.3 0 2 0.3 7.6 4.3 10.6 2.5 1.8 5.7 2.2 7.7 2.2 2.1 0 3.8-0.4 5-0.7v-11.7h7zm41.4-12.7c-4.3-3.5-10.3-3.8-11.5-3.8-4.4 0-8.9 0.6-13.3 4.1-3.6 2.9-6.1 6.8-6.1 12.5 0 7.5 4.8 16.2 17.6 16.2 9.5 0 18.8-5.4 18.8-16.7 0-6.8-3.4-10.6-5.5-12.3m-23.6 12.2c0-6.3 3.5-12.1 10.5-12.1 6 0 11.4 4.8 11.4 13 0 9.4-6.5 12-10.5 12-6 0-11.4-4.8-11.4-12.9m47.4 2.9c1.4 0.1 2.7 0.1 4.2 0 4.3 9 7.3 13.9 14 13.9 1.4 0 3.1-0.3 3.6-0.6 0.1-0.1 0.2-0.2 0.2-0.4l0.4-2-0.1-0.2c-0.8 0-2.1 0-3.5-0.8-1.9-1.1-5-5-7.9-11.2 5.2-1.5 7.4-4.7 7.4-8.5 0-2-0.5-4.3-2.8-6.3-2.5-2.1-5.4-2.5-10.9-2.5-1 0-10.3 0.3-11.7 0.3v31.6h6.9v-13.3zm0-14.7h4.1c5.4 0 7.1 2 7.1 5.3 0 2.9-1.3 5.1-4.6 5.7-1.8 0.3-2.9 0.2-6.6 0.1zm31.2 28h10.2c2.6 0 10.3 0 14.7-2.6 3.8-2.2 7.4-6.9 7.4-14.2 0-15-13.9-15-18.9-15h-2c-3.8 0-8.2 0.3-11.3 0.3v31.5zm6.9-27.9c2.2 0 3.9-0.1 5.7-0.1 9.9 0 12.3 4.6 12.3 12 0 10.8-5.9 12.2-12.7 12.2h-5.3zm65.3-0.5c-4.3-3.5-10.3-3.8-11.5-3.8-4.4 0-8.9 0.6-13.3 4.1-3.6 2.9-6.1 6.8-6.1 12.5 0 7.5 4.8 16.2 17.6 16.2 9.5 0 18.8-5.4 18.8-16.7 0-6.8-3.4-10.6-5.5-12.3m-23.6 12.2c0-6.3 3.5-12.1 10.5-12.1 6 0 11.4 4.8 11.4 13 0 9.4-6.5 12-10.5 12-6 0-11.4-4.8-11.4-12.9m40.5-15.4-0.1 31.6h5l-0.4-22.6 21.3 23.3 4.1-1v-31.2h-5l0.4 22.2-20.2-22.2h-5.1zm71.8 0-15.1 31.6h6.1l3.8-9.4h12.2l3.5 9.4h7.6l-13-31.6zm-3.7 18.5 4.8-12 4.4 12zm31.6-18.5-0.1 31.6h5l-0.4-22.6 21.3 23.3 4.1-1v-31.2h-5l0.4 22.2-20.3-22.3zm43.6 31.6h10.2c2.6 0 10.3 0 14.7-2.6 3.8-2.2 7.4-6.9 7.4-14.2 0-15-13.9-15-18.9-15h-2c-3.8 0-8.2 0.3-11.3 0.3v31.5zm7-27.9c2.2 0 3.9-0.1 5.7-0.1 9.9 0 12.3 4.6 12.3 12 0 10.8-5.9 12.2-12.7 12.2h-5.3zm58.7 27.9h12.3c4.5 0 7.9-1.3 9.3-2.3 1.3-0.9 3.9-3.3 3.9-7.4 0-1.4-0.3-3.3-1.5-5-1.8-2.6-4.4-3.2-5.8-3.5 1.3-0.6 5.3-2.3 5.3-6.7 0-2-1-3.8-2.4-4.9-2.4-1.8-5.7-2-9.3-2-3.2 0-8.5 0.2-11.8 0.2zm6.8-28.1h4.3c4.2 0 5.1 2.1 5.1 4.5 0 4.8-3.7 4.8-7.1 4.8h-2.3zm0 12.9h2.4c4.4 0 9.1 0.1 9.1 5.8 0 2.3-0.9 4.2-3.3 5.1-1.5 0.5-3.4 0.5-8.1 0.5v-11.4zm30.4-16.4v31.6h23.5v-4.2h-16.5v-10.5h14.3v-3.9h-14.3v-9.1h16v-3.9zm29.4 0v4.2h12.3v27.4h7v-27.4h12.4v-4.2zm35.3 0v4.2h12.3v27.4h7v-27.4h12.5v-4.2zm36.9 0 11.4 17.8v13.7h6.9v-13.8l12.3-17.6h-6.7l-7.7 13.4-7.9-13.4h-8.3zm-566.8 196.8v34.8h7.6v-15.4h15.4v-4.6h-15.4v-10.1h18.2v-4.6h-25.8zm87.4 3.5c-4.7-3.9-11.4-4.2-12.7-4.2-4.9 0-9.8 0.7-14.6 4.6-4 3.2-6.7 7.5-6.7 13.7 0 8.2 5.3 17.9 19.4 17.9 10.5 0 20.7-5.9 20.7-18.4-0.1-7.6-3.8-11.7-6.1-13.6m-26 13.4c0-7 3.8-13.3 11.6-13.3 6.6 0 12.5 5.3 12.5 14.4 0 10.3-7.2 13.2-11.5 13.2-6.7-0.1-12.6-5.3-12.6-14.3m64.6-16.9v21.1c0 5.2 0.3 8.3 3 10.9 3 2.8 7.1 3.5 11.1 3.5 2.2 0 8.4 0 12.8-4 3.5-3.1 3.8-7 3.9-13.3l0.4-18.1h-5.5v18.3c0 4.5 0 7.1-1.8 9-1.7 1.9-4.7 3-8.1 3-3.3 0-5.6-1-6.9-2.3-1.2-1.9-1.2-3.5-1.2-7.4v-20.7zm66.1 0-0.2 34.8h5.5l-0.4-24.9 23.4 25.7 4.5-1.1 0.1-34.4h-5.5l0.4 24.5-22.2-24.6zm68.1 34.8h11.2c2.8 0 11.3 0 16.2-2.9 4.2-2.5 8.1-7.6 8.1-15.7 0-16.6-15.3-16.6-20.8-16.6h-2.2c-4.2 0-9 0.4-12.5 0.4zm7.6-30.8c2.5-0.1 4.3-0.1 6.3-0.1 10.9 0 13.5 5 13.5 13.2 0 11.9-6.5 13.4-14 13.4h-5.9v-26.5zm69.1-4-16.6 34.8h6.7l4.2-10.4h13.5l3.8 10.4h8.4l-14.3-34.8zm-4.1 20.3 5.3-13.2 4.9 13.2zm47.3-20.3v4.6h13.6v30.2h7.7v-30.2h13.7v-4.6zm74.7 0h-7.6v34.8h7.6zm66.5 3.5c-4.7-3.9-11.4-4.2-12.7-4.2-4.9 0-9.8 0.7-14.6 4.6-4 3.2-6.7 7.5-6.7 13.7 0 8.2 5.3 17.9 19.4 17.9 10.5 0 20.7-5.9 20.7-18.4 0-7.6-3.8-11.7-6.1-13.6m-26 13.4c0-7 3.8-13.3 11.6-13.3 6.6 0 12.5 5.3 12.5 14.4 0 10.3-7.2 13.2-11.5 13.2-6.6-0.1-12.6-5.3-12.6-14.3m62.2-16.9-0.2 34.8h5.5l-0.4-24.9 23.4 25.7 4.5-1.1 0.1-34.4h-5.5l0.4 24.5-22.3-24.5h-5.5z"/>
</svg>
