<?xml version="1.0" encoding="UTF-8"?>
<!-- Generator: Adobe Illustrator 13.0.0, SVG Export Plug-In . SVG Version: 6.00 Build 14948)  -->
<svg width="284.24px" height="284.5px" enable-background="new 0 0 284.239 284.497" version="1.1" viewBox="0 0 284.24 284.5" xml:space="preserve" xmlns="http://www.w3.org/2000/svg" xmlns:xlink="http://www.w3.org/1999/xlink">

<path d="m138.82 0c0.574 10.628-2.8054 21.584-12.859 26.467-9.767 4.022-19.822 7.1825-31.312 6.8945-8.904 0-16.506-8.324-20.527-15.793-2.035 0.857-6.5332 4.1758-6.5332 4.1758 1.724 2.585 4.0814 6.1594 4.9434 9.3184 4.309 11.778-3.4469 21.544-10.629 29.875-8.617 9.192-20.107 18.384-32.746 12.926-2.873-0.862-5.8072-2.5224-8.6172-3.7324-1.149 2.01-2.6547 4.4215-3.5117 6.5645 7.069 3.321 16.437 11.246 16.725 20.438-0.862 9.766-3.1598 19.244-7.4688 27.861-4.596 10.341-15.659 14.224-26.287 13.938 0 2.677-5.7813e-4 4.8182 0.10742 7.2832 9.192-0.287 18.712 1.7606 24.17 9.5156 5.171 11.203 9.4792 22.982 8.6172 36.482-0.575 8.331-7.7565 15.225-14.938 18.959-0.861 0.57399-0.24794 1.2033 0.039063 1.7773 1.68 2.981 2.4653 4.3922 3.3223 4.2852 6.894-5.171 18.757-7.2132 27.088-2.6172 9.766 6.033 18.384 14.938 24.416 24.992 3.447 7.469 2.0181 16.208-2.3379 23.256-0.829 1.341-1.1789 2.2507 0.33008 3.0977 1.172 0.657 2.6274 1.537 3.7324 2.084 0.971 1.032 2.5855-2.8736 4.0215-4.3106 4.596-6.894 11.777-12.062 20.395-11.775 10.341 0.574 20.396 3.16 29.014 8.043 8.33 5.458 10.627 14.936 10.34 24.416 2.298 0 5.1133 0.19056 7.3633-0.02344-0.287-9.767 2.4043-19.221 10.447-25.254 10.054-4.596 20.968-8.617 33.033-8.043 9.479-0.287 16.948 7.4687 20.969 15.512 2.285-1.388 4.1063-2.4585 6.3203-4.0215-1.436-2.585-2.5854-5.17-3.7344-8.043-2.872-8.617-0.8609-18.672 5.7461-24.992 7.468-8.33 16.085-17.235 26.713-19.246 7.181-0.574 12.64 2.587 18.385 5.459 1.724-2.011 3.1595-4.5965 4.0215-6.8945-3.447-2.585-7.4698-4.596-10.342-8.043-10.629-12.065-3.1585-30.163 1.4375-42.514 4.596-10.054 15.511-12.352 25.564-12.352-0.058-2.535-0.05811-4.7838-0.28711-7.4688-9.766 0.862-19.246-2.012-24.416-10.916-5.171-10.629-8.6178-22.693-7.4688-35.619 0.862-7.756 8.6176-14.076 15.225-17.811-1.107-2.061-2.2983-4.0204-3.4473-6.3184-2.908 1.366-5.7454 3.4476-9.1934 4.3086-16.66 6.32-28.724-10.053-38.49-21.256-5.458-6.32-6.033-16.374-2.873-24.129 1.149-2.011 2.2313-4.0464 3.4473-6.6074-2.011-1.437-4.3224-2.6883-6.6074-3.4473-2.011 3.734-4.3096 7.4687-7.1816 10.055-13.501 11.49-33.322 3.7341-46.535-2.5859-8.043-5.745-10.053-14.652-9.7656-24.131-2.578-0.04-5.6783-0.039062-7.8223-0.039062zm-12.564 33.721c1.4273-0.053859 2.8645-6.56e-4 4.3008 0.21484l1.7226 1.4355c2.585 2.873 1.7245 7.4691 1.4375 11.203-0.06235 0.27282-0.12317 0.54173-0.18554 0.8125-10.856 0.97162-21.181 3.77-30.684 8.0801-1.6879-2.1271-3.2538-4.3025-4.4629-6.5938-0.862-1.149-0.862-3.4467 0-4.5957 4.308-4.309 9.7648-6.6081 15.51-8.6191 3.8782-0.64575 8.0795-1.7759 12.361-1.9375zm34.652 0.48633c2.7208-0.028984 5.5211 0.3313 7.8516 0.5918 6.339 0.707 12.006 2.9604 17.234 6.3184 2.526 1.623 1.1504 4.3098 1.1504 4.8848-1.5022 3.3799-3.5488 6.4685-5.8047 9.4453-9.0158-4.084-18.768-6.8185-29.016-7.9121-0.17565-0.89322-0.36565-1.7826-0.51171-2.6836-0.288-3.16-0.57535-6.6063 1.7226-8.9043 2.011-1.293 4.6523-1.7112 7.373-1.7402zm-18.793 17.404c50.085 0 90.637 40.552 90.637 90.637 0 50.085-40.552 90.637-90.637 90.637-50.085 0-90.637-40.552-90.637-90.637 0-50.085 40.552-90.637 90.637-90.637zm64.781 2.9473c0.49817 0.022276 1.0012 0.13045 1.5039 0.3457 4.883 2.298 9.193 6.0336 13.502 9.7676 3.734 3.734 7.4683 8.044 8.9043 13.502-1.3167 5.2679-6.9311 6.6806-11.406 8.4277-5.899-8.1755-13.055-15.38-21.195-21.324 1.1892-3.1799 2.5615-6.2936 4.4512-9.2227 1.2922-0.86175 2.7457-1.5629 4.2402-1.4961zm-128.62 0.92188c4.596-0.287 6.3199 5.1701 7.7559 8.3301 0.14133 0.38869 0.26919 0.784 0.4043 1.1758-8.6578 6.2526-16.219 13.92-22.354 22.668-1.3056-0.46708-2.6217-0.90757-3.9023-1.4375-2.011-1.149-4.5969-2.5868-5.1719-4.8848 0-5.458 4.3088-10.052 7.4688-14.361 4.309-4.883 9.7668-9.7672 15.799-11.49zm161.37 41.697c4.6773 0.32234 5.8076 6.4164 7.8184 9.4316 2.873 7.469 5.745 16.374 2.873 24.705-3.8985 2.8721-8.7778 2.0993-13.463 1.1074-1.0646-10.374-3.8176-20.243-7.9434-29.361 2.693-2.1051 5.4781-4.0623 8.4805-5.6426 0.82587-0.21538 1.5662-0.28628 2.2344-0.24024zm-195.27 1.6758c4.1867 0.16144 7.5317 2.2652 10.645 4.8086-3.9824 8.9675-6.6426 18.65-7.6797 28.816-2.1931 0.32062-4.4107 0.55859-6.6992 0.55859-2.298 0-4.31-0.86305-5.459-2.873-1.724-6.894-0.28734-14.362 1.7227-20.682 2.011-3.734 2.8747-9.1929 7.4707-10.629zm200.46 51.639c2.1411 0.28259 3.9187 1.5761 5.2109 3.5156 2.298 10.915-0.57403 21.829-5.457 30.734-1.149 1.149-2.5876 1.4375-4.3106 1.4375-4.0973-0.81924-7.5222-3.1872-10.787-5.9941 3.9109-8.9881 6.4783-18.69 7.4414-28.861 1.8566-0.31497 3.727-0.59464 5.6445-0.76367 0.79-0.14375 1.5441-0.16256 2.2578-0.06836zm-202.57 0.41015c1.1355 0.05383 2.2484 0.16068 3.2539 0.23243 0.59642 0.11929 1.184 0.24837 1.7754 0.37304 1.0331 10.692 3.8509 20.858 8.127 30.223-2.0088 1.681-4.0471 3.3016-6.168 4.7363-2.01 1.149-5.1708 1.724-7.4688 0-6.32-9.192-9.48-20.682-8.043-32.172 1.5082-3.2318 5.1168-3.5541 8.5234-3.3926zm177.31 46.725c1.8371 0.66059 3.6824 1.3075 5.4707 2.0527 2.011 0.862 4.0209 2.2976 5.1699 4.3086 1.149 4.021-1.7243 6.6086-3.4473 9.7676-4.882 6.607-11.488 12.926-18.957 16.086-2.011 0.574-3.7339-0.28861-5.1699-1.7246-1.8802-2.7791-3.2816-5.7812-4.5059-8.8613 8.2508-6.0162 15.491-13.326 21.439-21.629zm-154.23 1.0137c6.1749 8.3875 13.695 15.717 22.234 21.693-0.50033 1.55-0.97631 3.1105-1.5645 4.623-1.436 2.586-3.1585 6.3203-6.6055 6.3203-10.629-3.16-20.109-12.924-24.992-22.691 0-1.436-4.53e-4 -3.4487 1.4355-4.5977 2.9429-2.2072 6.1667-3.8782 9.4922-5.3477zm116.18 30.32c2.089 2.6283 3.981 5.3563 5.3203 8.3496 1.436 5.745-4.8851 6.8934-8.6191 9.1914-7.469 3.16-16.372 6.3194-24.703 3.7344-3.734-3.16-2.0106-8.6168-1.7226-12.926 0.02072-0.09771 0.0416-0.19531 0.0625-0.29297 10.487-1.0687 20.459-3.8626 29.662-8.0566zm-77.607 0.55859c8.9269 3.9149 18.558 6.5132 28.662 7.5176 0.42107 3.0059 0.69466 6.0452 0.54883 9.1777-0.287 2.011-2.0103 3.4465-3.4473 4.0215-10.916 1.149-21.258-1.1474-29.875-6.3184-1.436-1.436-1.4355-3.4489-1.4355-5.1719 1.2184-3.385 3.2396-6.3704 5.5469-9.2266z" fill="#fff"/>


	<defs>
		<circle id="SVGID_2_" cx="142.34" cy="142.52" r="63.986"/>
	</defs>
	<clipPath id="SVGID_3_">
		<use overflow="visible" xlink:href="#SVGID_2_"/>
	</clipPath>


<g transform="matrix(1.4743 0 0 1.4743 -67.474 -67.08)" fill="#fff">
	<path d="m89.252 159.32c3.448-0.402 5.057-0.804 5.057-4.597v-27.237c-3.218-3.965-4.137-4.137-4.884-4.137v-1.437h12.124l19.94 24.537h0.115v-17.411c0-3.448-0.69-5.344-5.344-5.689v-1.437h12.354v1.437c-4.138 0.517-4.482 1.839-4.482 4.597v33.846h-1.609l-25.571-31.144h-0.114v22.985c0 4.137 1.207 5.229 5.458 5.688v1.437h-13.044z"/>
	<path d="m156.02 133.46c-1.034-4.022-4.482-10.63-11.263-10.63-2.987 0-6.148 1.724-6.148 5.458 0 3.103 1.092 4.368 5.919 6.781l8.447 4.194c1.954 0.978 6.321 4.31 6.321 10.574 0 5.056-3.678 12.009-14.25 12.009-5.459 0-8.045-1.954-9.826-1.954-1.207 0-1.494 1.035-1.724 1.954h-1.666v-14.194h1.666c1.15 5.805 4.482 12.298 11.779 12.298 6.896 0 7.184-5.689 7.184-6.436 0-3.851-2.701-5.229-6.436-7.011l-3.85-1.838c-9.826-4.711-9.826-9.654-9.826-12.297 0-3.505 1.782-11.319 12.699-11.319 4.597 0 7.297 1.896 8.964 1.896 1.321 0 1.608-0.862 1.896-1.953h1.725v12.469h-1.611z"/>
	<path d="m162.67 121.91h32.581v11.55h-1.379c-1.264-5.976-2.815-9.596-12.699-9.596-3.103 0-4.137 0.23-4.137 2.702v13.331c7.125 0.114 7.987-3.965 8.792-8.562h1.436v19.421h-1.436c-0.632-4.711-1.551-8.906-8.792-8.906v13.389c0 3.792 2.299 3.908 6.32 4.08v1.437h-20.686v-1.437c3.275-0.344 5.057-0.516 5.057-4.08v-27.812c0-3.792-2.356-3.907-5.057-4.08z"/>
</g>
</svg>
